<svg xmlns="http://www.w3.org/2000/svg" xmlns:xlink="http://www.w3.org/1999/xlink" xmlns:serif="http://www.serif.com/" viewBox="0 0 32 40" version="1.1" xml:space="preserve" style="" x="0px" y="0px" fill-rule="evenodd" clip-rule="evenodd" stroke-linejoin="round" stroke-miterlimit="2"><g transform="matrix(1,0,0,1,-190,-10)"><path d="M205,15.414L205,23C205,23.552 205.448,24 206,24L218,24C218,24 218,38 218,38C218,38 194,38 194,38C194,38 194,24 194,24C194,24 202.967,24 202.967,24L202.967,22L193,22C192.448,22 192,22.448 192,23L192,39C192,39.552 192.448,40 193,40L219,40C219.552,40 220,39.552 220,39L220,23C220,22.448 219.552,22 219,22L207,22L207,15.414L210.016,18.43L211.43,17.016L206,11.586L200.586,17L202,18.414L205,15.414ZM205,27.05C203.859,27.282 203,28.291 203,29.5C203,30.88 204.12,32 205.5,32L206.5,32C206.776,32 207,32.224 207,32.5C207,32.776 206.776,33 206.5,33L204,33L204,35L205,35L205,36L207,36L207,34.95C208.141,34.718 209,33.709 209,32.5C209,31.12 207.88,30 206.5,30C206.5,30 205.5,30 205.5,30C205.224,30 205,29.776 205,29.5C205,29.224 205.224,29 205.5,29C205.5,29 208,29 208,29L208,27L207,27L207,26L205,26L205,27.05ZM213,30C213.552,30 214,30.448 214,31C214,31.552 213.552,32 213,32C212.448,32 212,31.552 212,31C212,30.448 212.448,30 213,30ZM199,30C199.552,30 200,30.448 200,31C200,31.552 199.552,32 199,32C198.448,32 198,31.552 198,31C198,30.448 198.448,30 199,30Z" fill="#fa4111"/></g><text x="0" y="47" fill="#fa4111" font-size="5px" font-weight="bold" font-family="'Helvetica Neue', Helvetica, Arial-Unicode, Arial, Sans-serif">Created by Desainer Kanan</text><text x="0" y="52" fill="#fa4111" font-size="5px" font-weight="bold" font-family="'Helvetica Neue', Helvetica, Arial-Unicode, Arial, Sans-serif">from the Noun Project</text></svg>