<svg xmlns="http://www.w3.org/2000/svg" xmlns:xlink="http://www.w3.org/1999/xlink" xmlns:serif="http://www.serif.com/" viewBox="0 0 64 80" version="1.1" xml:space="preserve" style="" x="0px" y="0px" fill-rule="evenodd" clip-rule="evenodd" stroke-linejoin="round" stroke-miterlimit="2"><g transform="matrix(1,0,0,1,-142,-282)"><g transform="matrix(1,0,0,1,142,282)"><rect x="0" y="0" width="64" height="64" style="" fill="none"/><g transform="matrix(0.704759,0.108212,-0.108212,0.704759,34.3614,-90.9566)"><path d="M51.538,170.227C49.998,169.978 48.284,170.129 47.229,170.582C46.881,170.731 46.597,170.914 46.386,171.118C46.108,171.387 46.101,171.831 46.37,172.109C46.639,172.387 47.083,172.395 47.362,172.126C47.465,172.025 47.611,171.944 47.782,171.871C48.476,171.573 49.517,171.45 50.553,171.521C50.332,171.943 50.18,172.383 50.156,172.763C50.097,173.703 50.349,174.439 50.748,174.973C51.383,175.822 52.409,176.184 53.365,176.037C53.994,175.941 54.517,175.55 54.852,174.985C55.296,174.237 55.397,173.174 54.965,172.248C54.684,171.647 54.135,171.159 53.425,170.804C54.406,170.533 55.55,170.736 56.45,171.299C56.778,171.504 57.211,171.404 57.416,171.076C57.621,170.747 57.522,170.314 57.193,170.109C55.543,169.078 53.303,168.986 51.763,170.049C51.689,170.1 51.614,170.16 51.538,170.227ZM52.017,171.763C51.77,172.104 51.577,172.514 51.556,172.851C51.476,174.127 52.335,174.777 53.152,174.651C53.368,174.618 53.531,174.463 53.646,174.269C53.877,173.879 53.919,173.324 53.694,172.841C53.438,172.292 52.778,171.971 52.017,171.763Z" fill="#fa4111"/></g><g transform="matrix(1,0,0,1,-213,-206.465)"><path d="M240.127,226.668L237.946,233.806L242.537,238.209L240.637,246.847L247.363,238.209L244.673,232.705L248.613,227.064C256.248,228.939 261.825,234.796 261.825,241.721C261.825,246.072 259.624,250.001 256.095,252.786C255.745,253.062 255.523,253.468 255.479,253.911C255.38,254.916 255.196,256.777 255.067,258.089C254.984,258.927 254.28,259.565 253.438,259.565L249.815,259.565C249.022,259.565 248.357,258.963 248.28,258.173C248.28,258.173 248.28,258.173 248.28,258.173C248.238,257.751 248.026,257.364 247.691,257.102C247.357,256.84 246.931,256.726 246.511,256.786C245.486,256.932 244.432,257.008 243.358,257.008C242.242,257.008 241.149,256.926 240.088,256.769C239.664,256.706 239.233,256.82 238.895,257.083C238.557,257.347 238.342,257.737 238.3,258.164C238.3,258.164 238.3,258.164 238.3,258.164C238.221,258.959 237.553,259.565 236.753,259.565L233.14,259.565C232.299,259.565 231.594,258.927 231.511,258.089C231.379,256.744 231.189,254.815 231.088,253.792C231.045,253.354 230.827,252.951 230.483,252.676C229.217,251.657 228.127,250.488 227.254,249.205C226.944,248.748 226.425,248.478 225.873,248.488C225.188,248.497 224.236,248.513 223.449,248.526C222.625,248.54 221.919,247.939 221.801,247.123C221.582,245.599 221.236,243.199 221.017,241.676C220.899,240.86 221.407,240.084 222.201,239.864C222.872,239.679 223.659,239.462 224.254,239.298C224.804,239.146 225.235,238.719 225.392,238.171C225.923,236.326 226.859,234.61 228.117,233.091C228.503,232.626 228.601,231.985 228.372,231.425C227.73,229.858 226.51,226.882 226.51,226.882C226.725,226.874 226.939,226.874 227.153,226.882C228.312,226.925 229.454,227.195 230.538,227.599C230.709,227.663 230.879,227.73 231.048,227.801C231.245,227.883 231.44,227.969 231.633,228.059C231.88,228.175 232.125,228.297 232.367,228.424C232.666,228.582 232.96,228.748 233.249,228.921L233.256,228.925C235.301,227.816 237.627,227.034 240.127,226.668Z" fill="#fa4111"/></g><g transform="matrix(0.75,0,0,1.15886,-152,-245.209)"><path d="M243.333,221L243.333,225C243.333,225.238 243.632,225.431 244,225.431C244.368,225.431 244.667,225.238 244.667,225L244.667,221C244.667,220.762 244.368,220.569 244,220.569C243.632,220.569 243.333,220.762 243.333,221Z" fill="#fa4111"/></g><g transform="matrix(0.53033,0.53033,-0.78033,0.78033,81.1131,-288.379)"><path d="M243.333,221L243.333,225C243.333,225.25 243.632,225.453 244,225.453C244.368,225.453 244.667,225.25 244.667,225L244.667,221C244.667,220.75 244.368,220.547 244,220.547C243.632,220.547 243.333,220.75 243.333,221Z" fill="#fa4111"/></g><g transform="matrix(-0.53033,0.53033,0.78033,0.78033,-19.1131,-288.379)"><path d="M244.667,221L244.667,225C244.667,225.25 244.368,225.453 244,225.453C243.632,225.453 243.333,225.25 243.333,225L243.333,221C243.333,220.75 243.632,220.547 244,220.547C244.368,220.547 244.667,220.75 244.667,221Z" fill="#fa4111"/></g></g></g></svg>