<svg xmlns="http://www.w3.org/2000/svg" xmlns:xlink="http://www.w3.org/1999/xlink" xmlns:serif="http://www.serif.com/" viewBox="0 0 64 80" version="1.1" xml:space="preserve" style="" x="0px" y="0px" fill-rule="evenodd" clip-rule="evenodd" stroke-linejoin="round" stroke-miterlimit="2"><g transform="matrix(1,0,0,1,-213,-141)"><g transform="matrix(1,0,0,1,213,141)"><rect x="0" y="0" width="64" height="64" style="" fill="none"/><g transform="matrix(1,0,0,1,-213,-141)"><path d="M233.256,166.36C236.16,164.785 239.63,163.869 243.358,163.869C253.55,163.869 261.825,170.719 261.825,179.156C261.825,183.507 259.624,187.436 256.095,190.221C255.745,190.496 255.523,190.903 255.479,191.346C255.38,192.351 255.196,194.212 255.067,195.524C254.984,196.361 254.28,197 253.438,197L249.815,197C249.022,197 248.357,196.398 248.28,195.608C248.28,195.608 248.28,195.608 248.28,195.608C248.238,195.186 248.026,194.798 247.691,194.536C247.357,194.274 246.931,194.16 246.511,194.221C245.486,194.367 244.432,194.443 243.358,194.443C242.242,194.443 241.149,194.361 240.088,194.204C239.664,194.141 239.233,194.254 238.895,194.518C238.557,194.781 238.342,195.172 238.3,195.599C238.3,195.599 238.3,195.599 238.3,195.599C238.221,196.394 237.553,197 236.753,197L233.14,197C232.299,197 231.594,196.361 231.511,195.524C231.379,194.178 231.189,192.25 231.088,191.227C231.045,190.788 230.827,190.386 230.483,190.11C229.217,189.091 228.127,187.923 227.254,186.64C226.944,186.183 226.425,185.913 225.873,185.922C225.188,185.932 224.236,185.948 223.449,185.961C222.625,185.975 221.919,185.373 221.801,184.558C221.582,183.034 221.236,180.634 221.017,179.11C220.899,178.294 221.407,177.518 222.201,177.299C222.872,177.114 223.659,176.897 224.254,176.732C224.804,176.581 225.235,176.154 225.392,175.606C225.923,173.761 226.859,172.045 228.117,170.526C228.503,170.06 228.601,169.42 228.372,168.86C227.73,167.293 226.51,164.316 226.51,164.316C226.725,164.308 226.939,164.309 227.153,164.317C228.312,164.36 229.454,164.63 230.538,165.034C230.709,165.098 230.879,165.165 231.048,165.235C231.245,165.317 231.44,165.404 231.633,165.494C231.88,165.609 232.125,165.731 232.367,165.859C232.666,166.016 232.96,166.183 233.249,166.356L233.256,166.36ZM238.55,168.744C238.55,168.744 240.71,167.723 243.629,167.723C246.548,167.723 248.708,168.744 248.708,168.744C248.986,168.876 249.319,168.757 249.451,168.48C249.583,168.202 249.464,167.869 249.187,167.737C249.187,167.737 246.824,166.609 243.629,166.609C240.434,166.609 238.072,167.737 238.072,167.737C237.794,167.869 237.676,168.202 237.808,168.48C237.94,168.757 238.272,168.876 238.55,168.744Z" fill="#11a94c"/></g><g transform="matrix(0.704759,0.108212,-0.108212,0.704759,34.3614,-88.057)"><path d="M51.538,170.227C49.998,169.978 48.284,170.129 47.229,170.582C46.881,170.731 46.597,170.914 46.386,171.118C46.108,171.387 46.101,171.831 46.37,172.109C46.639,172.387 47.083,172.395 47.362,172.126C47.465,172.025 47.611,171.944 47.782,171.871C48.476,171.573 49.517,171.45 50.553,171.521C50.332,171.943 50.18,172.383 50.156,172.763C50.097,173.703 50.349,174.439 50.748,174.973C51.383,175.822 52.409,176.184 53.365,176.037C53.994,175.941 54.517,175.55 54.852,174.985C55.296,174.237 55.397,173.174 54.965,172.248C54.684,171.647 54.135,171.159 53.425,170.804C54.406,170.533 55.55,170.736 56.45,171.299C56.778,171.504 57.211,171.404 57.416,171.076C57.621,170.747 57.522,170.314 57.193,170.109C55.543,169.078 53.303,168.986 51.763,170.049C51.689,170.1 51.614,170.16 51.538,170.227ZM52.017,171.763C51.77,172.104 51.577,172.514 51.556,172.851C51.476,174.127 52.335,174.777 53.152,174.651C53.368,174.618 53.531,174.463 53.646,174.269C53.877,173.879 53.919,173.324 53.694,172.841C53.438,172.292 52.778,171.971 52.017,171.763Z" fill="#11a94c"/></g><g transform="matrix(1,0,0,1,-213,-141)"><path d="M243.415,149C246.754,149 249.465,151.711 249.465,155.05C249.465,158.389 246.754,161.1 243.415,161.1C240.076,161.1 237.365,158.389 237.365,155.05C237.365,151.711 240.076,149 243.415,149ZM242.904,151.863C241.976,151.965 241.254,152.751 241.254,153.707L241.254,153.707C241.254,154.731 242.084,155.561 243.109,155.561L243.721,155.561C244.181,155.561 244.554,155.934 244.554,156.394L244.554,156.394C244.554,156.854 244.181,157.227 243.721,157.227L242.528,157.227C242.461,157.227 242.397,157.2 242.35,157.153C242.302,157.105 242.276,157.041 242.276,156.974L242.276,156.814C242.276,156.532 242.047,156.303 241.765,156.303C241.483,156.303 241.254,156.532 241.254,156.814L241.254,156.974C241.254,157.312 241.388,157.636 241.627,157.875C241.866,158.114 242.19,158.248 242.528,158.248L242.904,158.248L242.904,158.81C242.904,159.092 243.133,159.321 243.415,159.321C243.697,159.321 243.926,159.092 243.926,158.81L243.926,158.237C244.854,158.136 245.576,157.349 245.576,156.394L245.576,156.394C245.576,155.37 244.746,154.539 243.721,154.539L243.109,154.539C242.649,154.539 242.276,154.167 242.276,153.707L242.276,153.707C242.276,153.247 242.649,152.874 243.109,152.874L244.302,152.874C244.369,152.874 244.433,152.9 244.48,152.948C244.528,152.995 244.554,153.059 244.554,153.126L244.554,153.287C244.554,153.569 244.783,153.798 245.065,153.798C245.347,153.798 245.576,153.569 245.576,153.287L245.576,153.126C245.576,152.788 245.442,152.464 245.203,152.225C244.964,151.986 244.64,151.852 244.302,151.852L243.926,151.852L243.926,151.29C243.926,151.008 243.697,150.78 243.415,150.78C243.133,150.78 242.904,151.008 242.904,151.29L242.904,151.863Z" fill="#11a94c"/></g></g></g></svg>